<?xml version="1.0" encoding="utf-8"?>
<!-- Generator: Adobe Illustrator 16.0.0, SVG Export Plug-In . SVG Version: 6.00 Build 0)  -->
<!DOCTYPE svg PUBLIC "-//W3C//DTD SVG 1.1//EN" "http://www.w3.org/Graphics/SVG/1.1/DTD/svg11.dtd">
<svg version="1.1" id="Layer_1" xmlns="http://www.w3.org/2000/svg" xmlns:xlink="http://www.w3.org/1999/xlink" x="0px" y="0px"
	 width="373.5px" height="103px" viewBox="0 0 373.5 103" enable-background="new 0 0 373.5 103" xml:space="preserve">
<g>
	<polygon fill="#1C9FDA" points="31.007,67.641 31.007,67.684 31.008,67.684 31.008,100.281 59.295,83.961 31.007,67.641 	"/>
	<polygon fill="#1094C9" points="31.006,67.642 2.718,83.959 31.007,100.281 31.007,100.237 31.007,67.684 31.007,67.641 	"/>
	<g>
		<polygon fill="#A4CC39" points="40.902,51.321 12.668,35.019 12.668,67.621 		"/>
		<g>
			<path fill="#FFFFFF" d="M170.496,48.238c6.032,1.835,10.545,4.818,13.539,8.95c2.993,4.131,4.491,8.885,4.491,14.262
				s-1.355,10.317-4.065,14.82c-2.71,4.502-6.556,7.813-11.54,9.934c-4.983,2.122-11.737,3.181-20.262,3.181h-36.785V3.257h36.064
				c11.671,0,19.901,2.534,24.688,7.604c4.787,5.072,7.18,10.711,7.18,16.919c0,4.196-1.104,8.076-3.312,11.639
				S174.954,45.921,170.496,48.238 M128.594,43.517h20.853c4.282,0,7.879-0.24,10.786-0.721c2.906-0.48,5.476-1.748,7.704-3.804
				c2.229-2.054,3.344-5.245,3.344-9.573c0-4.546-1.125-7.901-3.377-10.064c-2.252-2.164-4.939-3.486-8.064-3.968
				c-3.125-0.48-7.137-0.722-12.032-0.722h-19.213V43.517z M128.594,87.974h23.934c8.567,0,14.513-1.465,17.836-4.393
				c3.321-2.929,4.982-6.973,4.982-12.131c0-5.201-1.77-9.256-5.31-12.162c-3.542-2.908-9.925-4.361-19.147-4.361h-22.295V87.974z"
				/>
			<path fill="#FFFFFF" d="M275.107,99.385h-14.359l-11.279-29.246h-40.131l-10.621,29.246h-13.443l36.919-96.129h13.703
				L275.107,99.385z M245.602,60.041c-7.871-20.808-12.307-32.622-13.313-35.441s-2.121-6.59-3.344-11.312h-0.328
				c-1.223,6.47-2.863,12.459-4.918,17.966l-10.754,28.787H245.602z"/>
			<rect x="277.232" y="3.257" fill="#FFFFFF" width="12.785" height="96.128"/>
			<polygon fill="#FFFFFF" points="371.223,14.665 339.42,14.665 339.42,99.385 326.633,99.385 326.633,14.665 295.094,14.665 
				295.094,3.257 371.223,3.257 			"/>
		</g>
		<polygon fill="none" points="59.296,51.32 59.298,51.321 63.058,49.149 		"/>
		<polygon fill="#1094C9" points="59.298,51.321 87.529,67.608 87.529,35.031 63.058,49.149 		"/>
		<polygon fill="#1C9FDA" points="31.007,35 59.295,18.679 31.008,2.358 31.008,34.957 31.007,34.956 31.007,34.999 		"/>
		<polygon fill="#1094C9" points="31.007,34.999 31.007,34.956 31.007,2.402 31.007,2.359 2.718,18.681 31.006,34.998 		"/>
		<polygon fill="#1094C9" points="59.295,18.723 59.295,18.679 31.007,35.002 59.294,51.319 59.295,51.32 59.295,51.277 		"/>
		<polygon fill="#1C9FDA" points="59.298,51.321 59.296,51.32 63.058,49.149 87.529,35.031 87.585,34.999 59.297,18.679 
			59.297,51.278 59.295,51.277 59.295,51.32 59.295,51.32 59.295,51.32 59.295,51.32 59.295,51.362 59.297,51.362 59.297,83.961 
			87.585,67.641 87.529,67.608 		"/>
		<polygon fill="#1094C9" points="59.294,51.321 31.007,67.639 59.295,83.961 59.295,83.917 59.295,51.362 59.295,51.32 		"/>
	</g>
</g>
</svg>
