<?xml version="1.0" encoding="utf-8"?>
<!-- Generator: Adobe Illustrator 16.0.0, SVG Export Plug-In . SVG Version: 6.00 Build 0)  -->
<!DOCTYPE svg PUBLIC "-//W3C//DTD SVG 1.1//EN" "http://www.w3.org/Graphics/SVG/1.1/DTD/svg11.dtd">
<svg version="1.1" id="Layer_1" xmlns="http://www.w3.org/2000/svg" xmlns:xlink="http://www.w3.org/1999/xlink" x="0px" y="0px"
	 width="605.279px" height="148px" viewBox="0 0 605.279 148" enable-background="new 0 0 605.279 148" xml:space="preserve">
<g id="Background">
</g>
<g id="drafts">
	<g>
		<g>
			<path fill="#FFFFFF" d="M509.303,89.506c0,1.297-0.263,2.441-0.783,3.434c-0.521,0.994-1.224,1.813-2.105,2.455
				c-1.043,0.771-2.161,1.316-3.354,1.637c-1.193,0.322-2.732,0.482-4.62,0.482h-7.956V71.44h7.357c1.975,0,3.455,0.061,4.441,0.185
				c0.987,0.122,1.936,0.41,2.841,0.866c0.993,0.5,1.72,1.157,2.18,1.967c0.46,0.81,0.688,1.765,0.688,2.86
				c0,1.226-0.345,2.32-1.034,3.289c-0.688,0.97-1.643,1.728-2.858,2.275v0.141c1.652,0.42,2.934,1.188,3.841,2.304
				C508.849,86.443,509.303,87.835,509.303,89.506 M504.154,77.807c0-0.632-0.11-1.177-0.336-1.638
				c-0.223-0.461-0.584-0.825-1.08-1.095c-0.598-0.315-1.261-0.508-1.994-0.577c-0.731-0.071-1.743-0.105-3.035-0.105h-3.54v7.633
				h4.191c1.155,0,2.006-0.055,2.552-0.166c0.547-0.111,1.111-0.342,1.695-0.691c0.559-0.338,0.957-0.781,1.193-1.331
				C504.034,79.288,504.154,78.611,504.154,77.807 M505.464,89.648c0-0.982-0.149-1.793-0.448-2.43
				c-0.298-0.638-0.9-1.18-1.808-1.623c-0.585-0.293-1.223-0.479-1.911-0.562c-0.689-0.083-1.667-0.124-2.936-0.124h-4.193v9.652
				h3.001c1.613,0,2.889-0.069,3.819-0.209c0.934-0.142,1.753-0.438,2.461-0.896c0.696-0.457,1.206-0.976,1.528-1.554
				C505.302,91.325,505.464,90.572,505.464,89.648"/>
		</g>
		<g>
			<polygon fill="#FFFFFF" points="512.974,97.514 512.974,71.44 530.35,71.44 530.35,74.525 516.656,74.525 516.656,81.67 
				529.418,81.67 529.418,84.754 516.656,84.754 516.656,94.43 530.35,94.43 530.35,97.514 			"/>
		</g>
		<g>
			<path fill="#FFFFFF" d="M542.111,97.98c-2.01,0-3.721-0.195-5.129-0.586c-1.409-0.39-2.734-0.871-3.975-1.443v-4.34h0.26
				c1.216,1.072,2.594,1.902,4.133,2.492c1.539,0.588,3.021,0.881,4.449,0.881c2.035,0,3.574-0.398,4.617-1.198
				c1.042-0.8,1.563-1.851,1.563-3.157c0-1.039-0.272-1.885-0.819-2.538c-0.545-0.653-1.414-1.138-2.604-1.452
				c-0.856-0.234-1.64-0.426-2.348-0.578c-0.708-0.15-1.597-0.355-2.663-0.611c-0.956-0.234-1.813-0.531-2.57-0.893
				c-0.758-0.363-1.428-0.834-2.012-1.418c-0.571-0.572-1.017-1.246-1.332-2.021c-0.316-0.775-0.476-1.672-0.476-2.686
				c0-2.113,0.875-3.884,2.625-5.313c1.75-1.43,3.984-2.145,6.701-2.145c1.554,0,3.021,0.146,4.404,0.438
				c1.384,0.292,2.666,0.707,3.845,1.244v4.155h-0.277c-0.884-0.76-2.013-1.424-3.39-1.99s-2.822-0.851-4.336-0.851
				c-1.713,0-3.097,0.376-4.151,1.128c-1.055,0.752-1.581,1.74-1.581,2.965c0,1.108,0.31,1.99,0.931,2.643
				c0.62,0.654,1.52,1.132,2.699,1.436c0.78,0.197,1.737,0.422,2.867,0.674c1.131,0.25,2.067,0.48,2.813,0.69
				c1.912,0.548,3.31,1.377,4.191,2.485c0.881,1.109,1.321,2.474,1.321,4.096c0,1.016-0.221,2.02-0.661,3.01
				c-0.439,0.991-1.06,1.832-1.853,2.521c-0.896,0.758-1.902,1.342-3.025,1.75C545.206,97.777,543.801,97.98,542.111,97.98"/>
		</g>
		<g>
			<polygon fill="#FFFFFF" points="562.122,97.514 562.122,74.525 552.803,74.525 552.803,71.44 575.126,71.44 575.126,74.525 
				565.807,74.525 565.807,97.514 			"/>
		</g>
		<g>
			<g>
				<g>
					<path fill="#FFFFFF" d="M514.366,107.721l2.363-7.013h1.148l2.363,7.013h-0.983l-0.637-1.959h-2.68l-0.635,1.959H514.366z
						 M518.364,104.965l-1.083-3.306l-1.078,3.306H518.364z"/>
					<path fill="#FFFFFF" d="M523.841,107.855c-0.495,0-0.948-0.074-1.36-0.226c-0.411-0.151-0.765-0.379-1.06-0.688
						c-0.297-0.311-0.521-0.694-0.679-1.152c-0.156-0.458-0.234-0.986-0.234-1.583c0-0.565,0.078-1.072,0.236-1.519
						c0.158-0.449,0.387-0.83,0.682-1.146c0.285-0.309,0.637-0.545,1.055-0.711c0.417-0.166,0.873-0.25,1.37-0.25
						c0.235,0,0.462,0.018,0.679,0.052c0.216,0.035,0.425,0.082,0.621,0.142c0.156,0.047,0.332,0.111,0.525,0.195
						c0.192,0.082,0.349,0.154,0.469,0.215v1.125h-0.08c-0.117-0.104-0.236-0.203-0.361-0.295c-0.122-0.094-0.299-0.193-0.523-0.3
						c-0.188-0.095-0.405-0.173-0.649-0.235c-0.245-0.063-0.51-0.094-0.792-0.094c-0.675,0-1.22,0.254-1.637,0.764
						c-0.415,0.508-0.623,1.185-0.623,2.029c0,0.471,0.054,0.881,0.165,1.233c0.109,0.353,0.268,0.649,0.475,0.896
						c0.201,0.241,0.444,0.426,0.729,0.553c0.284,0.127,0.604,0.19,0.957,0.19c0.265,0,0.525-0.019,0.787-0.056
						c0.261-0.039,0.479-0.096,0.659-0.17v-1.813h-1.62v-0.82h2.543v3.062c-0.119,0.054-0.278,0.121-0.479,0.203
						c-0.2,0.081-0.386,0.146-0.558,0.192c-0.229,0.069-0.438,0.121-0.622,0.156C524.328,107.838,524.105,107.855,523.841,107.855z"
						/>
					<path fill="#FFFFFF" d="M532.436,107.721h-0.935v-3.434h-3.225v3.434h-0.933v-7.013h0.933v2.75h3.225v-2.75h0.935V107.721z"/>
					<path fill="#FFFFFF" d="M541.98,107.721h-1.21l-2.558-3.265l-0.41,0.461v2.802h-0.933v-7.012h0.933v3.227l2.873-3.227h1.135
						l-2.9,3.131L541.98,107.721z"/>
					<path fill="#FFFFFF" d="M547.97,107.721h-1.21l-2.224-2.789h-1.063v2.789h-0.934v-7.013h1.81c0.399,0,0.738,0.022,1.01,0.065
						c0.271,0.045,0.529,0.146,0.775,0.307c0.244,0.158,0.438,0.359,0.581,0.607c0.143,0.25,0.214,0.557,0.214,0.924
						c0,0.515-0.131,0.945-0.392,1.289c-0.262,0.346-0.614,0.602-1.063,0.769L547.97,107.721z M545.954,102.682
						c0-0.205-0.036-0.387-0.108-0.545s-0.184-0.287-0.334-0.389c-0.131-0.088-0.285-0.15-0.461-0.186
						c-0.177-0.037-0.395-0.056-0.654-0.056h-0.923v2.647h0.819c0.267,0,0.507-0.023,0.721-0.07
						c0.213-0.047,0.395-0.145,0.546-0.292c0.135-0.132,0.234-0.289,0.299-0.472C545.923,103.139,545.954,102.926,545.954,102.682z"
						/>
					<path fill="#FFFFFF" d="M547.768,107.721l2.363-7.013h1.149l2.363,7.013h-0.984l-0.636-1.959h-2.679l-0.638,1.959H547.768z
						 M551.766,104.965l-1.083-3.306l-1.079,3.306H551.766z"/>
					<path fill="#FFFFFF" d="M559.418,107.721h-1.21l-2.559-3.265l-0.409,0.461v2.802h-0.933v-7.012h0.933v3.227l2.872-3.227h1.135
						l-2.899,3.131L559.418,107.721z"/>
					<path fill="#FFFFFF" d="M564.938,101.514c0.267,0.307,0.473,0.688,0.621,1.145c0.146,0.455,0.221,0.975,0.221,1.559
						c0,0.568-0.072,1.082-0.217,1.54c-0.144,0.458-0.352,0.843-0.625,1.154c-0.286,0.325-0.619,0.567-1.001,0.723
						c-0.382,0.156-0.802,0.233-1.261,0.233c-0.475,0-0.9-0.081-1.279-0.241c-0.381-0.16-0.707-0.397-0.979-0.715
						c-0.271-0.312-0.478-0.694-0.621-1.149c-0.146-0.455-0.217-0.97-0.217-1.543c0-0.591,0.072-1.109,0.219-1.555
						c0.146-0.445,0.354-0.829,0.624-1.148c0.271-0.312,0.597-0.547,0.978-0.709s0.808-0.242,1.277-0.242
						c0.479,0,0.908,0.082,1.291,0.25C564.351,100.98,564.674,101.211,564.938,101.514z M564.811,104.216
						c0-0.465-0.051-0.876-0.151-1.233s-0.242-0.654-0.423-0.891c-0.186-0.242-0.41-0.422-0.672-0.544
						c-0.262-0.12-0.557-0.181-0.883-0.181c-0.34,0-0.635,0.061-0.888,0.176c-0.254,0.118-0.478,0.301-0.673,0.549
						c-0.185,0.239-0.326,0.539-0.426,0.9c-0.099,0.361-0.147,0.77-0.147,1.224c0,0.921,0.192,1.624,0.578,2.112
						c0.388,0.488,0.904,0.732,1.556,0.732c0.648,0,1.166-0.246,1.551-0.732C564.616,105.84,564.811,105.137,564.811,104.216z"/>
					<path fill="#FFFFFF" d="M574.665,100.708l-1.762,7.013h-1.049l-1.428-5.822l-1.396,5.822h-1.024l-1.795-7.013h0.955l1.413,5.83
						l1.402-5.83h0.947l1.417,5.888l1.402-5.888H574.665z"/>
				</g>
			</g>
		</g>
		<g>
			<path fill="#FFFFFF" d="M476.643,97.549l-6.111-3.521h-15.956l-6.109,3.521c5.846,10.157,23.326,26.789,42.265,28.229
				C484.13,122.082,473.627,108.799,476.643,97.549"/>
		</g>
		<g>
			<path fill="#FFFFFF" d="M463.56,78.465L463.56,78.465l-0.12-0.208L463.56,78.465z M480.955,45.099
				c0.1,7.566-6.148,23.297-17.399,26.314l0.004,7.053l7.978,13.819l6.105,3.531C483.516,85.673,489.182,62.221,480.955,45.099"/>
		</g>
		<g>
			<path fill="#FFFFFF" d="M453.569,92.285L453.569,92.285l-0.119,0.208L453.569,92.285z M461.553,71.413
				c-11.719-0.017-34.863,6.806-45.576,22.491c6.502-3.868,23.253-6.326,31.488,1.914l6.104-3.533l7.979-13.818L461.553,71.413z"/>
		</g>
		<g>
			<path fill="#FFFFFF" d="M458.813,88.258c0-2.064,1.676-3.738,3.741-3.738c2.064,0,3.739,1.674,3.739,3.738
				c0,2.071-1.675,3.74-3.739,3.74C460.489,91.998,458.813,90.329,458.813,88.258"/>
		</g>
	</g>
	<g>
		<path fill="#FFFFFF" d="M151.338,66.671c4.879,1.484,8.525,3.895,10.95,7.236c2.42,3.34,3.63,7.183,3.63,11.531
			c0,4.349-1.097,8.34-3.286,11.983c-2.191,3.64-5.303,6.315-9.33,8.03c-4.031,1.716-9.493,2.57-16.384,2.57h-29.742v-77.72h29.157
			c9.438,0,16.092,2.051,19.963,6.15c3.87,4.1,5.805,8.66,5.805,13.678c0,3.394-0.893,6.53-2.678,9.411
			C157.639,62.421,154.944,64.798,151.338,66.671 M117.461,62.854h16.856c3.467,0,6.372-0.194,8.724-0.583
			c2.351-0.389,4.427-1.413,6.229-3.076c1.802-1.66,2.704-4.24,2.704-7.74c0-3.675-0.911-6.388-2.729-8.139
			c-1.821-1.747-3.995-2.818-6.522-3.206c-2.526-0.389-5.768-0.584-9.726-0.584h-15.535V62.854L117.461,62.854z M117.461,98.798
			h19.353c6.926,0,11.732-1.185,14.42-3.552c2.686-2.366,4.03-5.639,4.03-9.809c0-4.207-1.433-7.482-4.296-9.834
			c-2.864-2.351-8.024-3.526-15.482-3.526h-18.023L117.461,98.798L117.461,98.798z"/>
		<path fill="#FFFFFF" d="M235.92,108.023h-11.609l-9.12-23.645h-32.443l-8.59,23.645h-10.868l29.851-77.72h11.078L235.92,108.023z
			 M212.063,76.213c-6.36-16.823-9.947-26.374-10.761-28.655c-0.813-2.277-1.715-5.328-2.705-9.146h-0.266
			c-0.989,5.231-2.314,10.074-3.975,14.527l-8.695,23.273L212.063,76.213L212.063,76.213z"/>
		<rect x="237.639" y="30.301" fill="#FFFFFF" width="10.339" height="77.722"/>
		<polygon fill="#FFFFFF" points="313.633,39.526 287.921,39.526 287.921,108.023 277.582,108.023 277.582,39.526 252.08,39.526 
			252.08,30.301 313.633,30.301 		"/>
		<polygon fill="#231F20" points="23.732,82.344 23.732,55.982 46.56,69.164 		"/>
		<polygon fill="#FFFFFF" points="23.732,55.982 23.732,82.344 46.56,69.164 		"/>
		<polygon fill="#FFFFFF" points="62.611,69.164 83.669,81.307 83.669,57.013 75.907,61.492 		"/>
		<polygon fill="#FFFFFF" points="39.151,30.596 39.151,54.947 60.252,42.772 		"/>
		<polygon fill="#FFFFFF" points="16.866,42.773 37.971,54.947 37.971,54.759 37.971,30.596 		"/>
		<polygon fill="#FFFFFF" points="60.843,43.792 39.738,55.968 60.843,68.143 60.843,67.775 		"/>
		<polygon fill="#FFFFFF" points="39.151,83.379 39.151,107.729 60.252,95.553 		"/>
		<polygon fill="#FFFFFF" points="37.971,107.729 37.971,83.379 16.866,95.553 		"/>
		<polygon fill="#FFFFFF" points="62.023,43.792 62.023,68.143 82.372,56.401 83.126,55.966 		"/>
		<polygon fill="#FFFFFF" points="83.126,82.831 66.528,73.254 62.02,70.655 62.02,95.006 		"/>
		<polygon fill="#FFFFFF" points="60.843,70.184 39.738,82.357 60.843,94.535 		"/>
	</g>
	<rect x="407" y="20.75" fill="none" width="178.999" height="40.278"/>
	<g enable-background="new    ">
		<path fill="#FFFFFF" d="M455.443,20.746c1.414,0,2.598,0.472,3.551,1.416c0.953,0.943,1.43,2.104,1.43,3.484
			c0,1.367-0.477,2.526-1.427,3.479s-2.109,1.428-3.478,1.428c-1.385,0-2.553-0.474-3.506-1.422c-0.953-0.947-1.43-2.094-1.43-3.439
			c0-0.897,0.217-1.729,0.651-2.495s1.026-1.366,1.775-1.8S454.571,20.746,455.443,20.746z M455.484,21.654
			c-0.69,0-1.346,0.18-1.965,0.54c-0.618,0.359-1.102,0.845-1.449,1.454c-0.348,0.61-0.521,1.29-0.521,2.039
			c0,1.11,0.385,2.047,1.154,2.812s1.697,1.146,2.781,1.146c0.725,0,1.396-0.176,2.013-0.527s1.098-0.832,1.443-1.442
			c0.345-0.609,0.519-1.287,0.519-2.032c0-0.741-0.174-1.411-0.519-2.011c-0.346-0.6-0.832-1.079-1.46-1.438
			C456.853,21.834,456.188,21.654,455.484,21.654z"/>
		<path fill="#FFFFFF" d="M462.346,20.98h1.86c1.036,0,1.738,0.043,2.107,0.128c0.554,0.127,1.004,0.399,1.352,0.816
			s0.521,0.931,0.521,1.541c0,0.509-0.12,0.956-0.358,1.341c-0.239,0.386-0.581,0.678-1.025,0.874
			c-0.444,0.197-1.059,0.298-1.841,0.302l3.358,4.336h-1.154l-3.359-4.336h-0.527v4.336h-0.933V20.98z M463.279,21.895v3.174
			l1.609,0.014c0.623,0,1.084-0.06,1.383-0.178c0.299-0.119,0.531-0.309,0.699-0.568c0.168-0.261,0.251-0.552,0.251-0.873
			c0-0.313-0.085-0.598-0.255-0.854c-0.169-0.256-0.392-0.439-0.667-0.549c-0.275-0.11-0.733-0.166-1.374-0.166H463.279z"/>
		<path fill="#FFFFFF" d="M479.193,22.549l-0.724,0.686c-0.521-0.512-1.091-0.9-1.711-1.165s-1.224-0.396-1.812-0.396
			c-0.732,0-1.43,0.18-2.092,0.54c-0.662,0.359-1.176,0.847-1.539,1.463c-0.364,0.615-0.547,1.266-0.547,1.951
			c0,0.703,0.189,1.37,0.565,2.003s0.897,1.13,1.562,1.492c0.664,0.361,1.393,0.542,2.184,0.542c0.961,0,1.773-0.271,2.438-0.813
			c0.664-0.541,1.059-1.244,1.181-2.107h-2.978v-0.9h4.025c-0.009,1.442-0.438,2.588-1.286,3.437s-1.983,1.272-3.405,1.272
			c-1.727,0-3.094-0.588-4.101-1.764c-0.774-0.906-1.161-1.953-1.161-3.143c0-0.885,0.222-1.707,0.666-2.469
			s1.054-1.357,1.828-1.787s1.65-0.645,2.628-0.645c0.792,0,1.536,0.143,2.234,0.429C477.847,21.46,478.529,21.918,479.193,22.549z"
			/>
		<path fill="#FFFFFF" d="M485.337,20.98l4.354,9.338h-1.008l-1.469-3.072h-4.022l-1.455,3.072h-1.041l4.412-9.338H485.337z
			 M485.22,22.965l-1.601,3.38h3.192L485.22,22.965z"/>
		<path fill="#FFFFFF" d="M491.146,30.318V20.98h0.203l6.214,7.158V20.98h0.921v9.338h-0.21l-6.163-7.07v7.07H491.146z"/>
		<path fill="#FFFFFF" d="M500.622,20.98h0.934v9.338h-0.934V20.98z"/>
		<path fill="#FFFFFF" d="M503.333,21.883V20.98h4.926l-3.901,8.424h3.704v0.914h-5.148l3.936-8.436H503.333z"/>
		<path fill="#FFFFFF" d="M513.749,20.98l4.354,9.338h-1.008l-1.469-3.072h-4.022l-1.455,3.072h-1.041l4.412-9.338H513.749z
			 M513.632,22.965l-1.601,3.38h3.192L513.632,22.965z"/>
		<path fill="#FFFFFF" d="M518.624,21.895V20.98h5.116v0.914h-2.082v8.424h-0.952v-8.424H518.624z"/>
		<path fill="#FFFFFF" d="M529.532,20.746c1.414,0,2.598,0.472,3.551,1.416c0.953,0.943,1.43,2.104,1.43,3.484
			c0,1.367-0.477,2.526-1.427,3.479s-2.109,1.428-3.478,1.428c-1.385,0-2.553-0.474-3.506-1.422c-0.953-0.947-1.43-2.094-1.43-3.439
			c0-0.897,0.217-1.729,0.651-2.495s1.026-1.366,1.775-1.8S528.66,20.746,529.532,20.746z M529.573,21.654
			c-0.69,0-1.346,0.18-1.965,0.54c-0.618,0.359-1.102,0.845-1.449,1.454c-0.348,0.61-0.521,1.29-0.521,2.039
			c0,1.11,0.385,2.047,1.154,2.812s1.697,1.146,2.781,1.146c0.725,0,1.396-0.176,2.013-0.527s1.098-0.832,1.443-1.442
			c0.345-0.609,0.519-1.287,0.519-2.032c0-0.741-0.174-1.411-0.519-2.011c-0.346-0.6-0.832-1.079-1.46-1.438
			C530.943,21.834,530.278,21.654,529.573,21.654z"/>
		<path fill="#FFFFFF" d="M536.436,20.98h1.86c1.036,0,1.738,0.043,2.107,0.128c0.554,0.127,1.004,0.399,1.352,0.816
			s0.521,0.931,0.521,1.541c0,0.509-0.12,0.956-0.358,1.341c-0.239,0.386-0.581,0.678-1.025,0.874
			c-0.444,0.197-1.059,0.298-1.841,0.302l3.358,4.336h-1.154l-3.359-4.336h-0.527v4.336h-0.933V20.98z M537.368,21.895v3.174
			l1.609,0.014c0.623,0,1.084-0.06,1.383-0.178c0.299-0.119,0.531-0.309,0.699-0.568c0.168-0.261,0.251-0.552,0.251-0.873
			c0-0.313-0.085-0.598-0.255-0.854c-0.169-0.256-0.392-0.439-0.667-0.549c-0.275-0.11-0.733-0.166-1.374-0.166H537.368z"/>
	</g>
	<line fill="none" stroke="#FFFFFF" stroke-width="2" stroke-miterlimit="10" x1="373" y1="41.059" x2="373" y2="101.82"/>
</g>
</svg>
