<?xml version="1.0" encoding="utf-8"?>
<!-- Generator: Adobe Illustrator 16.0.0, SVG Export Plug-In . SVG Version: 6.00 Build 0)  -->
<!DOCTYPE svg PUBLIC "-//W3C//DTD SVG 1.1//EN" "http://www.w3.org/Graphics/SVG/1.1/DTD/svg11.dtd">
<svg version="1.1"
	 id="Layer_1" xmlns:inkscape="http://www.inkscape.org/namespaces/inkscape" xmlns:sodipodi="http://sodipodi.sourceforge.net/DTD/sodipodi-0.dtd" xmlns:svg="http://www.w3.org/2000/svg" xmlns:rdf="http://www.w3.org/1999/02/22-rdf-syntax-ns#" xmlns:cc="http://creativecommons.org/ns#" xmlns:dc="http://purl.org/dc/elements/1.1/" sodipodi:docname="best-logo-white.svg" inkscape:version="0.91 r13725"
	 xmlns="http://www.w3.org/2000/svg" xmlns:xlink="http://www.w3.org/1999/xlink" x="0px" y="0px" width="552.666px" height="268px"
	 viewBox="0 0 552.666 268" enable-background="new 0 0 552.666 268" xml:space="preserve">
<sodipodi:namedview  id="namedview31" borderopacity="1" pagecolor="#ffffff" bordercolor="#666666" objecttolerance="10" gridtolerance="10" guidetolerance="10" showgrid="false" inkscape:zoom="0.62786564" inkscape:cx="41.410134" inkscape:cy="134" inkscape:current-layer="Layer_1" inkscape:window-maximized="1" inkscape:window-y="-8" inkscape:window-x="-8" inkscape:window-height="1018" inkscape:pageshadow="2" inkscape:window-width="1920" inkscape:pageopacity="0">
	<inkscape:grid  type="xygrid" id="grid4163"></inkscape:grid>
</sodipodi:namedview>
<g id="g3">
	<g>
		<defs>
			<rect id="SVGID_1_" x="-26.667" y="-287.67" width="595.277" height="841.89"/>
		</defs>
		<clipPath id="SVGID_2_">
			<use xlink:href="#SVGID_1_"  overflow="visible"/>
		</clipPath>
		<path id="path11" clip-path="url(#SVGID_2_)" fill="#FFFFFF" d="M317.679,147.215c0,4.238-0.854,7.977-2.557,11.221
			c-1.705,3.246-3.998,5.92-6.881,8.019c-3.41,2.521-7.063,4.305-10.959,5.354c-3.896,1.049-8.928,1.574-15.096,1.574H256.19v-85.2
			h24.042c6.449,0,11.289,0.199,14.516,0.601c3.225,0.4,6.318,1.343,9.281,2.83c3.246,1.637,5.619,3.781,7.119,6.43
			c1.502,2.649,2.254,5.765,2.254,9.347c0,4.004-1.127,7.584-3.379,10.748c-2.255,3.163-5.369,5.642-9.347,7.432v0.458
			c5.402,1.373,9.586,3.884,12.553,7.529C316.196,137.204,317.679,141.754,317.679,147.215 M300.856,108.983
			c0-2.061-0.365-3.843-1.097-5.349c-0.729-1.508-1.908-2.699-3.53-3.578c-1.949-1.029-4.119-1.66-6.515-1.886
			c-2.396-0.231-5.703-0.344-9.924-0.344h-11.564v24.943h13.697c3.772,0,6.556-0.181,8.341-0.543
			c1.784-0.363,3.631-1.115,5.538-2.259c1.826-1.106,3.125-2.557,3.896-4.349C300.47,113.827,300.856,111.615,300.856,108.983
			 M305.136,147.682c0-3.213-0.487-5.858-1.463-7.943c-0.975-2.082-2.942-3.854-5.906-5.305c-1.91-0.954-3.992-1.565-6.244-1.833
			c-2.254-0.268-5.448-0.403-9.592-0.403h-13.703v31.542h9.805c5.276,0,9.438-0.229,12.483-0.688
			c3.045-0.458,5.726-1.433,8.039-2.923c2.275-1.492,3.939-3.185,4.996-5.076C304.606,153.158,305.136,150.7,305.136,147.682"/>
	</g>
	<g>
		<defs>
			<rect id="SVGID_3_" x="-26.667" y="-287.67" width="595.277" height="841.89"/>
		</defs>
		<clipPath id="SVGID_4_">
			<use xlink:href="#SVGID_3_"  overflow="visible"/>
		</clipPath>
		<polygon id="polygon13" clip-path="url(#SVGID_4_)" fill="#FFFFFF" points="329.675,173.382 329.675,88.183 386.452,88.183 
			386.452,98.262 341.712,98.262 341.712,121.61 383.407,121.61 383.407,131.689 341.712,131.689 341.712,163.303 386.452,163.303 
			386.452,173.382 		"/>
	</g>
	<g>
		<defs>
			<rect id="SVGID_5_" x="-26.667" y="-287.67" width="595.277" height="841.89"/>
		</defs>
		<clipPath id="SVGID_6_">
			<use xlink:href="#SVGID_5_"  overflow="visible"/>
		</clipPath>
		<path id="path15" clip-path="url(#SVGID_6_)" fill="#FFFFFF" d="M424.888,174.904c-6.569,0-12.157-0.639-16.762-1.914
			s-8.934-2.85-12.99-4.717v-14.181h0.853c3.973,3.505,8.475,6.216,13.504,8.142c5.026,1.921,9.875,2.882,14.539,2.882
			c6.647,0,11.68-1.306,15.084-3.916c3.406-2.61,5.11-6.05,5.11-10.317c0-3.396-0.893-6.158-2.676-8.291
			c-1.783-2.136-4.623-3.718-8.514-4.746c-2.801-0.762-5.357-1.39-7.67-1.888c-2.313-0.494-5.213-1.162-8.703-2.001
			c-3.123-0.764-5.924-1.734-8.398-2.916c-2.477-1.183-4.666-2.726-6.571-4.632c-1.867-1.87-3.318-4.07-4.353-6.608
			c-1.035-2.533-1.553-5.46-1.553-8.778c0-6.902,2.858-12.687,8.578-17.357c5.717-4.67,13.018-7.006,21.897-7.006
			c5.072,0,9.867,0.477,14.39,1.431c4.522,0.955,8.711,2.31,12.563,4.065v13.574h-0.912c-2.881-2.484-6.571-4.65-11.071-6.503
			c-4.498-1.852-9.222-2.779-14.168-2.779c-5.597,0-10.117,1.228-13.563,3.689c-3.447,2.457-5.17,5.688-5.17,9.69
			c0,3.62,1.012,6.498,3.041,8.633c2.025,2.134,4.967,3.698,8.818,4.686c2.557,0.648,5.68,1.382,9.37,2.202
			c3.695,0.821,6.759,1.573,9.191,2.259c6.248,1.793,10.813,4.501,13.693,8.122c2.879,3.623,4.319,8.082,4.319,13.383
			c0,3.316-0.719,6.597-2.159,9.837c-1.439,3.239-3.46,5.985-6.054,8.233c-2.922,2.479-6.215,4.387-9.887,5.719
			C434.999,174.239,430.403,174.904,424.888,174.904"/>
	</g>
	<g>
		<defs>
			<rect id="SVGID_7_" x="-26.667" y="-287.67" width="595.277" height="841.89"/>
		</defs>
		<clipPath id="SVGID_8_">
			<use xlink:href="#SVGID_7_"  overflow="visible"/>
		</clipPath>
		<polygon id="polygon17" clip-path="url(#SVGID_8_)" fill="#FFFFFF" points="490.274,173.382 490.274,98.262 459.819,98.262 
			459.819,88.183 532.763,88.183 532.763,98.262 502.31,98.262 502.31,173.382 		"/>
	</g>
	<g>
		<defs>
			<rect id="SVGID_9_" x="-26.667" y="-287.67" width="595.277" height="841.89"/>
		</defs>
		<clipPath id="SVGID_10_">
			<use xlink:href="#SVGID_9_"  overflow="visible"/>
		</clipPath>
		<g id="g19" clip-path="url(#SVGID_10_)">
			<g enable-background="new    ">
				<path fill="#FFFFFF" d="M334.228,206.728l7.724-22.911h3.755l7.725,22.911h-3.217l-2.076-6.401h-8.756l-2.078,6.401H334.228z
					 M347.29,197.726l-3.539-10.802l-3.523,10.802H347.29z"/>
				<path fill="#FFFFFF" d="M365.187,207.174c-1.621,0-3.104-0.246-4.447-0.738c-1.344-0.493-2.498-1.241-3.463-2.247
					c-0.964-1.016-1.702-2.271-2.215-3.77c-0.514-1.498-0.77-3.221-0.77-5.17c0-1.847,0.259-3.501,0.777-4.963
					c0.518-1.462,1.259-2.71,2.223-3.746c0.934-1.006,2.082-1.78,3.447-2.324c1.364-0.543,2.856-0.815,4.478-0.815
					c0.77,0,1.508,0.057,2.216,0.17c0.707,0.112,1.385,0.267,2.031,0.461c0.513,0.154,1.084,0.367,1.715,0.639
					c0.631,0.272,1.142,0.506,1.531,0.7v3.678h-0.262c-0.379-0.339-0.771-0.659-1.177-0.962s-0.978-0.628-1.716-0.977
					c-0.615-0.309-1.322-0.564-2.123-0.77s-1.662-0.308-2.585-0.308c-2.206,0-3.988,0.83-5.347,2.492
					c-1.359,1.662-2.039,3.873-2.039,6.632c0,1.539,0.18,2.883,0.538,4.031c0.359,1.149,0.878,2.124,1.554,2.924
					c0.656,0.79,1.449,1.393,2.378,1.808c0.929,0.416,1.972,0.624,3.132,0.624c0.861,0,1.717-0.062,2.569-0.185
					c0.851-0.124,1.569-0.309,2.153-0.555v-5.924h-5.293v-2.678h8.31v10.002c-0.39,0.175-0.911,0.396-1.562,0.662
					c-0.652,0.267-1.26,0.477-1.824,0.631c-0.748,0.226-1.426,0.395-2.031,0.508C366.78,207.117,366.048,207.174,365.187,207.174z"
					/>
				<path fill="#FFFFFF" d="M393.268,206.728h-3.047v-11.217h-10.54v11.217h-3.047v-22.911h3.047v8.985h10.54v-8.985h3.047V206.728z
					"/>
				<path fill="#FFFFFF" d="M424.457,206.728h-3.954l-8.355-10.663l-1.339,1.508v9.155h-3.047v-22.911h3.047v10.54l9.386-10.54
					h3.709l-9.479,10.232L424.457,206.728z"/>
				<path fill="#FFFFFF" d="M444.03,206.728h-3.955l-7.263-9.109h-3.478v9.109h-3.047v-22.911h5.908
					c1.313,0,2.414,0.071,3.301,0.215c0.888,0.144,1.731,0.478,2.531,1c0.801,0.514,1.434,1.175,1.9,1.985s0.7,1.815,0.7,3.016
					c0,1.683-0.426,3.088-1.276,4.217c-0.852,1.128-2.012,1.964-3.479,2.508L444.03,206.728z M437.444,190.264
					c0-0.667-0.118-1.26-0.354-1.777c-0.236-0.519-0.601-0.941-1.094-1.27c-0.43-0.287-0.934-0.49-1.508-0.608
					c-0.574-0.117-1.287-0.177-2.139-0.177h-3.016v8.647h2.678c0.871,0,1.656-0.076,2.354-0.23s1.293-0.472,1.785-0.954
					c0.441-0.431,0.767-0.943,0.977-1.539C437.339,191.761,437.444,191.063,437.444,190.264z"/>
				<path fill="#FFFFFF" d="M443.368,206.728l7.725-22.911h3.754l7.725,22.911h-3.216l-2.077-6.401h-8.756l-2.077,6.401H443.368z
					 M456.432,197.726l-3.539-10.802l-3.523,10.802H456.432z"/>
				<path fill="#FFFFFF" d="M481.437,206.728h-3.955l-8.355-10.663l-1.338,1.508v9.155h-3.047v-22.911h3.047v10.54l9.386-10.54
					h3.708l-9.479,10.232L481.437,206.728z"/>
				<path fill="#FFFFFF" d="M499.192,186.447c0.872,1.006,1.549,2.252,2.031,3.739s0.723,3.185,0.723,5.093
					c0,1.857-0.235,3.534-0.707,5.032c-0.473,1.497-1.154,2.754-2.047,3.77c-0.934,1.067-2.023,1.854-3.27,2.362
					c-1.246,0.507-2.619,0.761-4.116,0.761c-1.549,0-2.944-0.261-4.185-0.784c-1.242-0.523-2.309-1.303-3.201-2.339
					c-0.883-1.016-1.559-2.267-2.031-3.755c-0.472-1.487-0.707-3.17-0.707-5.047c0-1.929,0.238-3.621,0.715-5.077
					c0.477-1.457,1.156-2.709,2.039-3.755c0.882-1.016,1.946-1.787,3.193-2.315c1.246-0.528,2.639-0.793,4.177-0.793
					c1.56,0,2.964,0.272,4.216,0.815C497.274,184.698,498.331,185.463,499.192,186.447z M498.777,195.279
					c0-1.518-0.165-2.861-0.493-4.031c-0.328-1.169-0.789-2.139-1.385-2.908c-0.605-0.79-1.336-1.382-2.191-1.777
					c-0.857-0.395-1.818-0.592-2.886-0.592c-1.108,0-2.075,0.192-2.9,0.576c-0.826,0.385-1.558,0.982-2.192,1.793
					c-0.605,0.779-1.07,1.76-1.393,2.939c-0.324,1.18-0.484,2.513-0.484,4c0,3.006,0.631,5.307,1.893,6.901s2.953,2.393,5.077,2.393
					s3.813-0.798,5.069-2.393C498.149,200.586,498.777,198.285,498.777,195.279z"/>
				<path fill="#FFFFFF" d="M530.982,183.816l-5.755,22.911h-3.432l-4.662-19.019l-4.555,19.019h-3.354l-5.863-22.911h3.123
					l4.617,19.049l4.585-19.049h3.093l4.632,19.233l4.585-19.233H530.982z"/>
			</g>
		</g>
	</g>
	<g>
		<defs>
			<rect id="SVGID_11_" x="-26.667" y="-287.67" width="595.277" height="841.89"/>
		</defs>
		<clipPath id="SVGID_12_">
			<use xlink:href="#SVGID_11_"  overflow="visible"/>
		</clipPath>
		<path id="path23" clip-path="url(#SVGID_12_)" fill="#FFFFFF" d="M210.959,173.494l-19.968-11.508h-52.139l-19.963,11.508
			c19.102,33.189,76.217,87.535,138.1,92.24C235.426,253.657,201.107,210.255,210.959,173.494"/>
	</g>
	<g>
		<defs>
			<rect id="SVGID_13_" x="-26.667" y="-287.67" width="595.277" height="841.89"/>
		</defs>
		<clipPath id="SVGID_14_">
			<use xlink:href="#SVGID_13_"  overflow="visible"/>
		</clipPath>
		<path id="path25" clip-path="url(#SVGID_14_)" fill="#FFFFFF" d="M168.21,111.137L168.21,111.137l-0.39-0.677L168.21,111.137z
			 M225.053,2.109c0.322,24.722-20.094,76.127-56.856,85.983l0.013,23.045l26.068,45.157l19.949,11.538
			C233.42,134.689,251.931,58.057,225.053,2.109"/>
	</g>
	<g>
		<defs>
			<rect id="SVGID_15_" x="-26.667" y="-287.67" width="595.277" height="841.89"/>
		</defs>
		<clipPath id="SVGID_16_">
			<use xlink:href="#SVGID_15_"  overflow="visible"/>
		</clipPath>
		<path id="path27" clip-path="url(#SVGID_16_)" fill="#FFFFFF" d="M135.567,156.294L135.567,156.294l-0.39,0.681L135.567,156.294z
			 M161.652,88.093c-38.29-0.054-113.92,22.238-148.925,73.489c21.246-12.639,75.982-20.67,102.895,6.254l19.945-11.542
			l26.071-45.151L161.652,88.093z"/>
	</g>
	<g>
		<defs>
			<rect id="SVGID_17_" x="-26.667" y="-287.67" width="595.277" height="841.89"/>
		</defs>
		<clipPath id="SVGID_18_">
			<use xlink:href="#SVGID_17_"  overflow="visible"/>
		</clipPath>
		<path id="path29" clip-path="url(#SVGID_18_)" fill="#FFFFFF" d="M152.702,143.135c0-6.744,5.47-12.215,12.222-12.215
			c6.748,0,12.218,5.471,12.218,12.215c0,6.768-5.47,12.221-12.218,12.221C158.172,155.355,152.702,149.9,152.702,143.135"/>
	</g>
</g>
</svg>
